<svg data-noselect="" viewBox="0 0 800 600" width="800" height="600" preserveAspectRatio="none" version="1.1" xmlns="http://www.w3.org/2000/svg" xmlns:xlink="http://www.w3.org/1999/xlink" class="svg-canvas" style=""><defs></defs> <g id="background" data-noselect=""><rect fill="#ffffff" width="800" height="600" data-noselect=""></rect> <!----></g> <g id="shape_xiLAaTFf8l" transform="translate(82.42873655919999,353.8599302298) rotate(0,137.27923627684999,6.8639618138425) scale(1,1)" filter="" style="opacity: 1;"><g><rect fill="rgba(0,0,0,0)" width="134.5584725537" height="25.727923627685" x="-10" y="-10"></rect><svg width="274.5584725537" height="13.727923627685" viewBox="-69.8333333333329 -3.491666666666645 239.6666666666658 11.98333333333329" version="1.1" xmlns="http://www.w3.org/2000/svg" xmlns:xlink="http://www.w3.org/1999/xlink" class="style-removed" preserveAspectRatio="none" data-parent="shape_xiLAaTFf8l">
    <title>10000</title>
    <g id="编辑器_A5FATmyuOZ" stroke="none" stroke-width="1" fill="none" fill-rule="evenodd">
        <g id="画板_583rrQgp1s" transform="translate(-95.000000, -1061.000000)" stroke="#000000" stroke-width="4">
            <line x1="95" y1="1063.67091" x2="195" y2="1063.67091" id="10000_vCi5RKfegO" stroke="#5c3200" stroke-width="1.7458333333333225" stroke-dasharray=""></line>
        </g>
    </g>
</svg></g></g><g id="shape_SLCxp9ja4i" transform="translate(428.39532367137,358.59119514627) rotate(0,137.27923627684999,6.8639618138425) scale(1,1)" filter="" style="opacity: 1;"><g><rect fill="rgba(0,0,0,0)" width="134.5584725537" height="25.727923627685" x="-10" y="-10"></rect><svg width="274.5584725537" height="13.727923627685" viewBox="-69.8333333333329 -3.491666666666645 239.6666666666658 11.98333333333329" version="1.1" xmlns="http://www.w3.org/2000/svg" xmlns:xlink="http://www.w3.org/1999/xlink" class="style-removed" preserveAspectRatio="none" data-parent="shape_SLCxp9ja4i">
    <title>10000</title>
    <g id="编辑器_A5FATmyuOZ" stroke="none" stroke-width="1" fill="none" fill-rule="evenodd">
        <g id="画板_583rrQgp1s" transform="translate(-95.000000, -1061.000000)" stroke="#000000" stroke-width="4">
            <line x1="95" y1="1063.67091" x2="195" y2="1063.67091" id="10000_vCi5RKfegO" stroke="#5c3200" stroke-width="1.7458333333333225" stroke-dasharray=""></line>
        </g>
    </g>
</svg></g></g><g id="shape_ntPLKW2gM3" transform="translate(27.97,-185.86157335015002) rotate(0,372.03,475.09000000000003) scale(1,1)" filter="" style="opacity: 1;"><g><svg xmlns="http://www.w3.org/2000/svg" version="1.1" xmlns:xlink="http://www.w3.org/1999/xlink" width="1008.12" height="950.1800000000001" viewBox="0 0 1008.12 950.1800000000001"><g data-width="479.79702000000003" transform="translate(132.13148999999999, 0)"><path d="M51.62-15.98L51.62-15.98Q51.62-19.41 54.00-21.78Q56.38-24.16 59.81-24.16L59.81-24.16Q63.24-24.16 65.62-21.78Q68.00-19.41 68.00-15.98L68.00-15.98Q68.00-12.54 65.62-10.17Q63.24-7.79 59.81-7.79L59.81-7.79Q56.38-7.79 54.00-10.17Q51.62-12.54 51.62-15.98ZM59.81-44.23L59.81-44.23Q64.96-44.23 68.92-44.69Q72.88-45.15 77.37-47.27Q81.86-49.38 87.60-53.60Q93.35-57.83 101.93-65.35L101.93-65.35Q104.17-67.20 106.42-67.20L106.42-67.20Q109.06-67.20 110.91-65.35Q112.75-63.51 112.75-60.87L112.75-60.87Q112.75-59.41 112.03-58.09Q111.30-56.77 110.25-55.85L110.25-55.85Q101.93-48.46 95.39-43.64Q88.86-38.82 83.05-35.98Q77.24-33.14 71.69-31.95Q66.15-30.76 59.81-30.76L59.81-30.76Q53.08-30.76 47.46-31.89Q41.85-33.01 36.18-35.91Q30.50-38.82 24.03-43.64Q17.56-48.46 9.11-55.85L9.11-55.85Q8.05-56.77 7.33-58.09Q6.60-59.41 6.60-60.87L6.60-60.87Q6.60-63.51 8.45-65.35Q10.30-67.20 12.94-67.20L12.94-67.20Q14.26-67.20 15.32-66.68Q16.37-66.15 17.43-65.35L17.43-65.35Q25.88-57.96 31.62-53.74Q37.36-49.51 41.92-47.40Q46.47-45.29 50.57-44.76Q54.66-44.23 59.81-44.23Z" transform="translate(0 517.09) " fill="rgb(92, 50, 0)" stroke="rgb(92, 50, 0)" stroke-width="0.22" data-glyph-w="119.35512000000001" data-glyph-h="125.42850000000001" data-glyph-ascender="105.62400000000001" data-glyph-descender="-19.8045"></path><path d="M54.26-15.98L54.26-15.98Q54.26-19.41 56.64-21.78Q59.02-24.16 62.45-24.16L62.45-24.16Q65.88-24.16 68.26-21.78Q70.64-19.41 70.64-15.98L70.64-15.98Q70.64-12.54 68.26-10.17Q65.88-7.79 62.45-7.79L62.45-7.79Q59.02-7.79 56.64-10.17Q54.26-12.54 54.26-15.98ZM19.28-47.27L19.28-15.98Q19.28-13.34 17.43-11.49Q15.58-9.64 12.94-9.64L12.94-9.64Q10.30-9.64 8.45-11.49Q6.60-13.34 6.60-15.98L6.60-15.98L6.60-60.87Q6.60-63.51 8.45-65.35Q10.30-67.20 12.94-67.20L12.94-67.20Q14.26-67.20 15.32-66.68Q16.37-66.15 17.43-65.35L17.43-65.35Q25.88-57.96 32.02-53.74Q38.16-49.51 43.24-47.40Q48.32-45.29 52.81-44.76Q57.30-44.23 62.45-44.23L62.45-44.23Q67.60-44.23 72.02-44.69Q76.45-45.15 81.40-47.27Q86.35-49.38 92.49-53.60Q98.63-57.83 107.21-65.35L107.21-65.35Q109.45-67.20 111.70-67.20L111.70-67.20Q114.34-67.20 116.19-65.35Q118.03-63.51 118.03-60.87L118.03-60.87L118.03-15.98Q118.03-13.34 116.19-11.49Q114.34-9.64 111.70-9.64L111.70-9.64Q109.06-9.64 107.21-11.49Q105.36-13.34 105.36-15.98L105.36-15.98L105.36-47.27Q99.42-42.51 93.94-39.34Q88.46-36.18 83.24-34.26Q78.03-32.35 72.88-31.56Q67.73-30.76 62.45-30.76L62.45-30.76Q56.77-30.76 51.56-31.56Q46.34-32.35 41.13-34.26Q35.91-36.18 30.56-39.34Q25.22-42.51 19.28-47.27L19.28-47.27Z" transform="translate(119.35512000000001 517.09) " fill="rgb(92, 50, 0)" stroke="rgb(92, 50, 0)" stroke-width="0.22" data-glyph-w="124.63632000000001" data-glyph-h="125.42850000000001" data-glyph-ascender="105.62400000000001" data-glyph-descender="-19.8045"></path><path d="M106.42-9.64L106.42-9.64Q105.89-9.64 105.49-9.70Q105.10-9.77 104.57-9.90L104.57-9.90Q98.76-11.09 93.21-13.86Q87.67-16.64 83.31-20.46Q78.95-24.29 76.31-28.98Q73.67-33.67 73.67-38.42L73.67-38.42Q73.67-43.17 76.31-47.79Q78.95-52.42 83.31-56.31Q87.67-60.21 93.21-62.98Q98.76-65.75 104.57-66.94L104.57-66.94Q105.10-67.07 105.49-67.14Q105.89-67.20 106.42-67.20L106.42-67.20Q109.06-67.20 110.91-65.35Q112.75-63.51 112.75-60.87L112.75-60.87Q112.75-58.36 111.04-56.71Q109.32-55.06 106.81-54.53L106.81-54.53Q102.72-53.60 99.02-51.89Q95.33-50.17 92.49-47.99Q89.65-45.81 88.00-43.37Q86.35-40.93 86.35-38.42L86.35-38.42Q86.35-35.91 88.00-33.40Q89.65-30.90 92.49-28.72Q95.33-26.54 99.02-24.82Q102.72-23.11 106.81-22.31L106.81-22.31Q109.32-21.78 111.04-20.13Q112.75-18.48 112.75-15.98L112.75-15.98Q112.75-13.34 110.91-11.49Q109.06-9.64 106.42-9.64ZM51.49-38.42L51.49-38.42Q51.49-41.85 53.87-44.23Q56.24-46.61 59.68-46.61L59.68-46.61Q63.11-46.61 65.49-44.23Q67.86-41.85 67.86-38.42L67.86-38.42Q67.86-34.99 65.49-32.61Q63.11-30.23 59.68-30.23L59.68-30.23Q56.24-30.23 53.87-32.61Q51.49-34.99 51.49-38.42ZM12.94-9.64L12.94-9.64Q10.30-9.64 8.45-11.49Q6.60-13.34 6.60-15.98L6.60-15.98Q6.60-18.48 8.32-20.13Q10.03-21.78 12.54-22.31L12.54-22.31Q16.64-23.11 20.33-24.82Q24.03-26.54 26.87-28.72Q29.71-30.90 31.36-33.40Q33.01-35.91 33.01-38.42L33.01-38.42Q33.01-40.93 31.36-43.37Q29.71-45.81 26.87-47.99Q24.03-50.17 20.33-51.89Q16.64-53.60 12.54-54.53L12.54-54.53Q10.03-55.06 8.32-56.71Q6.60-58.36 6.60-60.87L6.60-60.87Q6.60-63.51 8.45-65.35Q10.30-67.20 12.94-67.20L12.94-67.20Q13.47-67.20 13.86-67.14Q14.26-67.07 14.79-66.94L14.79-66.94Q20.60-65.75 26.14-62.98Q31.69-60.21 36.04-56.31Q40.40-52.42 43.04-47.79Q45.68-43.17 45.68-38.42L45.68-38.42Q45.68-33.67 43.04-28.98Q40.40-24.29 36.04-20.46Q31.69-16.64 26.14-13.86Q20.60-11.09 14.79-9.90L14.79-9.90Q14.26-9.77 13.86-9.70Q13.47-9.64 12.94-9.64Z" transform="translate(243.99144 517.09) " fill="rgb(92, 50, 0)" stroke="rgb(92, 50, 0)" stroke-width="0.22" data-glyph-w="119.35512000000001" data-glyph-h="125.42850000000001" data-glyph-ascender="105.62400000000001" data-glyph-descender="-19.8045"></path><path d="M19.28-32.08L19.28-22.31L92.55-22.31Q94.53-22.31 96.05-23.77Q97.57-25.22 97.57-27.20L97.57-27.20Q97.57-29.31 96.05-30.70Q94.53-32.08 92.55-32.08L92.55-32.08L19.28-32.08ZM92.55-54.53L19.28-54.53L19.28-44.76L92.69-44.76Q94.67-44.76 96.12-46.08Q97.57-47.40 97.57-49.51L97.57-49.51Q97.57-51.49 96.05-53.01Q94.53-54.53 92.55-54.53L92.55-54.53ZM92.02-9.64L12.94-9.64Q10.30-9.64 8.45-11.49Q6.60-13.34 6.60-15.98L6.60-15.98L6.60-60.87Q6.60-63.51 8.45-65.35Q10.30-67.20 12.94-67.20L12.94-67.20L92.02-67.20Q95.72-67.20 98.96-65.82Q102.19-64.43 104.63-62.05Q107.08-59.68 108.46-56.44Q109.85-53.21 109.85-49.51L109.85-49.51Q109.85-46.21 108.73-43.37Q107.60-40.53 105.76-38.29L105.76-38.29Q107.60-36.04 108.73-33.21Q109.85-30.37 109.85-27.20L109.85-27.20Q109.85-23.50 108.46-20.33Q107.08-17.16 104.63-14.79Q102.19-12.41 98.96-11.02Q95.72-9.64 92.02-9.64L92.02-9.64Z" transform="translate(363.34656 517.09) " fill="rgb(92, 50, 0)" stroke="rgb(92, 50, 0)" stroke-width="0.22" data-glyph-w="116.45046" data-glyph-h="125.42850000000001" data-glyph-ascender="105.62400000000001" data-glyph-descender="-19.8045"></path></g></svg></g></g><g id="shape_ZJoJWlwP9P" transform="translate(262.68889124961,215.65143015206) rotate(0,125.62,149.35999999999999) scale(1,1)" filter="" style="opacity: 1;"><g><svg xmlns="http://www.w3.org/2000/svg" version="1.1" xmlns:xlink="http://www.w3.org/1999/xlink" width="334.48" height="298.71999999999997" viewBox="0 0 334.48 298.71999999999997"><g data-width="166.48" transform="translate(42.38, 0)"><path d="M19.27-32.52L21.05-32.52L22.84-32.52L22.84-30.24L22.84-27.96L22.52-27.72Q22.27-27.48 21.70-27.35Q21.14-27.23 20.24-27.15L20.24-27.15L19.35-27.15L19.27-29.83L19.27-32.52ZM5.20-26.58L20.73-26.58L36.34-26.58L36.34-25.69L36.34-24.87L20.73-24.87L5.20-24.87L5.20-25.69L5.20-26.58ZM10.81-23.66Q10.81-23.74 12.84-23.74Q14.88-23.74 14.92-23.61Q14.96-23.49 14.75-22.64Q14.55-21.79 14.23-20.85Q13.90-19.92 13.41-18.86L13.41-18.86Q12.92-17.80 12.92-17.76Q12.92-17.72 13.05-17.72Q13.17-17.72 13.17-8.78L13.17-8.78Q13.17-3.17 13.13-1.38Q13.09 0.41 13.01 0.73L13.01 0.73Q12.92 1.30 12.68 1.79L12.68 1.79Q12.44 2.19 12.07 2.56Q11.71 2.93 11.30 3.17L11.30 3.17Q10.81 3.41 10.24 3.41L10.24 3.41L9.67 3.41L9.67-5.04Q9.59-13.25 9.43-13.25L9.43-13.25Q9.35-13.25 8.62-12.68L8.62-12.68Q7.97-12.11 7.36-11.79Q6.75-11.46 6.10-11.22Q5.45-10.97 5.37-10.97Q5.28-10.97 5.28-11.10Q5.28-11.22 5.85-12.19L5.85-12.19Q6.34-12.92 7.07-14.14L7.07-14.14Q7.72-15.28 8.21-16.34L8.21-16.34Q8.86-17.56 9.19-18.37L9.19-18.37Q9.67-19.51 10.00-20.57L10.00-20.57Q10.40-21.79 10.57-22.60L10.57-22.60Q10.81-23.57 10.81-23.66L10.81-23.66ZM24.39-23.33L24.39-23.33Q24.55-23.33 24.55-23.21Q24.55-23.09 23.98-21.70L23.98-21.70Q23.41-20.24 23.25-20.04Q23.09-19.83 23.09-19.71Q23.09-19.59 28.78-19.59L28.78-19.59L34.47-19.59L34.47-18.78L34.47-18.05L34.14-18.05L33.82-18.05L32.60-15.69Q31.46-13.49 30.73-12.19L30.73-12.19Q30.00-10.97 29.26-9.92L29.26-9.92Q28.45-8.78 27.56-7.64L27.56-7.64Q26.58-6.42 26.66-6.34L26.66-6.34Q26.66-6.26 27.64-5.61L27.64-5.61Q28.45-4.96 29.59-4.23L29.59-4.23Q30.73-3.58 31.46-3.25L31.46-3.25Q32.27-2.85 34.14-1.95L34.14-1.95Q36.09-1.14 36.17-1.06L36.17-1.06Q36.34-0.89 36.17 0.98Q36.01 2.85 35.97 2.93Q35.93 3.01 35.36 2.68L35.36 2.68Q35.04 2.44 31.30 0.57L31.30 0.57Q27.72-1.30 26.74-1.95L26.74-1.95Q25.77-2.60 25.12-3.09L25.12-3.09Q24.96-3.25 24.79-3.37Q24.63-3.50 24.51-3.62Q24.39-3.74 24.39-3.74L24.39-3.74Q24.22-3.90 23.33-3.01L23.33-3.01Q22.27-2.11 21.38-1.38L21.38-1.38Q20.48-0.57 19.10 0.33L19.10 0.33Q17.72 1.22 16.34 1.95L16.34 1.95Q14.88 2.68 14.55 2.60L14.55 2.60Q14.47 2.60 14.27 2.56Q14.06 2.52 13.98 2.52L13.98 2.52L13.66 2.44L14.63 1.63Q15.36 1.06 16.58 0L16.58 0Q17.40-0.65 19.02-2.28L19.02-2.28Q20.48-3.74 21.42-4.76Q22.35-5.77 22.35-5.85L22.35-5.85Q22.35-5.85 21.87-6.50L21.87-6.50Q21.46-6.99 20.89-7.89L20.89-7.89Q20.40-8.62 19.75-9.75L19.75-9.75Q19.18-10.81 18.70-11.87Q18.21-12.92 18.13-13.01L18.13-13.01Q18.13-13.01 17.72-12.64Q17.31-12.27 16.75-11.71L16.75-11.71Q15.28-10.32 15.04-10.08L15.04-10.08Q14.63-9.84 14.14-9.92L14.14-9.92L13.66-10.00L14.79-11.62Q16.10-13.58 16.91-14.88L16.91-14.88Q18.05-16.58 18.62-17.56L18.62-17.56Q19.35-18.70 19.67-19.43L19.67-19.43Q20.08-20.24 20.73-21.70L20.73-21.70L21.30-23.17L22.68-23.25Q23.98-23.25 24.39-23.33ZM29.26-18.05L25.61-18.05L21.95-18.05L21.38-17.23Q20.89-16.42 19.92-15.28L19.92-15.28Q18.94-14.06 18.94-13.98L18.94-13.98Q18.94-13.90 19.75-12.84L19.75-12.84Q20.48-12.03 21.79-10.65L21.79-10.65Q23.17-9.27 23.66-8.86L23.66-8.86L24.31-8.29L24.63-8.86Q25.04-9.35 25.77-10.49L25.77-10.49Q26.42-11.46 26.99-12.68L26.99-12.68Q27.48-13.74 28.29-15.53L28.29-15.53Q28.45-15.93 28.65-16.46Q28.86-16.99 28.98-17.27Q29.10-17.56 29.18-17.72L29.18-17.72L29.26-18.05ZM21.95-17.40L22.44-17.31Q22.84-17.23 23.49-16.95Q24.14-16.66 25.04-15.85L25.04-15.85Q25.85-15.04 26.50-14.23L26.50-14.23Q27.07-13.41 27.07-13.33L27.07-13.33Q27.07-13.25 25.93-12.52L25.93-12.52Q24.71-11.79 24.67-11.83Q24.63-11.87 24.55-12.44L24.55-12.44Q24.39-13.01 23.98-13.74L23.98-13.74Q23.66-14.47 23.25-15.12L23.25-15.12Q22.84-15.69 22.35-16.22Q21.87-16.75 21.95-17.07L21.95-17.07L21.95-17.40Z" transform="translate(0 162.85999999999999) " fill="rgb(92, 50, 0)" stroke="rgb(92, 50, 0)" stroke-width="0.069" data-glyph-w="41.62" data-glyph-h="44.302539062499996" data-glyph-ascender="36.498789062499995" data-glyph-descender="-7.803749999999999"></path><path d="M16.18-31.46L17.88-31.46L19.67-31.46L19.67-31.21L19.67-30.97L24.79-30.97L30.00-30.97L30.08-31.21Q30.08-31.46 31.78-31.46L31.78-31.46L33.49-31.46L33.57-28.04Q33.57-24.63 33.41-23.90L33.41-23.90Q33.25-23.25 33.08-22.60L33.08-22.60Q32.92-22.11 32.52-21.38L32.52-21.38Q32.19-20.73 31.70-20.24L31.70-20.24L31.21-19.75L30.65-19.75L30.00-19.75L30.00-20.48L30.00-21.22L24.31-21.22L18.45-21.14L18.21-20.73Q17.96-20.32 17.60-20.04Q17.23-19.75 16.66-19.75L16.66-19.75L16.18-19.75L16.10-25.36Q16.10-30.97 16.10-31.21L16.10-31.21L16.18-31.46ZM30.00-29.43L24.87-29.43L19.67-29.43L19.67-28.21L19.67-26.91L24.87-26.91L30.00-26.91L30.00-28.21L30.00-29.43ZM23.33-25.36L23.33-25.36L19.67-25.36L19.59-24.79Q19.51-24.22 19.43-23.57L19.43-23.57Q19.27-23.00 19.27-22.92L19.27-22.92Q19.27-22.76 24.63-22.76L24.63-22.76L30.00-22.76L30.00-23.98L30.00-25.28L28.45-25.28Q26.74-25.28 23.33-25.36ZM4.88-31.21L8.21-31.21L11.46-31.21L11.46-30.40L11.46-29.59L8.21-29.59L4.88-29.59L4.88-30.40L4.88-31.21ZM4.88-18.86L8.21-18.86L11.46-18.86L11.46-18.05L11.46-17.31L8.21-17.31L4.88-17.31L4.88-18.05L4.88-18.86ZM13.09-18.78L14.79-18.78L16.58-18.78L16.58-18.53L16.58-18.29L24.79-18.29Q33.00-18.29 33.00-18.49Q33.00-18.70 34.79-18.70L34.79-18.70L36.66-18.70L36.58-16.66Q36.58-14.63 36.34-13.74Q36.09-12.84 35.60-11.95L35.60-11.95Q35.20-11.06 34.79-10.57L34.79-10.57L34.30-10.16L33.65-10.16L33.08-10.16L33.00-10.89L33.00-11.54L24.22-11.54L15.53-11.54L15.28-11.22Q15.04-10.89 14.71-10.57L14.71-10.57Q14.31-10.16 13.66-10.16L13.66-10.16L13.09-10.16L13.09-14.47L13.09-18.78ZM18.94-16.66L17.80-16.75L16.58-16.75L16.58-15.77Q16.58-14.88 16.50-14.23L16.50-14.23Q16.26-13.49 16.26-13.33L16.26-13.33L16.18-13.09L17.56-13.17L18.94-13.17L18.94-14.96L18.94-16.66ZM27.15-16.66L24.79-16.75Q22.52-16.75 22.52-16.58L22.52-16.58Q22.35-16.34 22.27-15.69L22.27-15.69Q22.03-14.96 21.62-14.06L21.62-14.06Q21.22-13.17 21.22-13.13Q21.22-13.09 24.14-13.17L24.14-13.17L27.15-13.17L27.15-14.96L27.15-16.66ZM33.00-16.75L31.87-16.75Q30.65-16.75 30.65-16.66Q30.65-16.58 30.40-15.77L30.40-15.77Q30.24-14.88 29.75-13.98L29.75-13.98L29.35-13.09L31.13-13.09L33.00-13.09L33.00-14.96L33.00-16.75ZM15.36-9.35L24.47-9.35L33.57-9.35L33.33-8.70Q33.17-8.29 32.92-7.56L32.92-7.56Q32.68-7.07 32.19-6.34L32.19-6.34Q31.70-5.61 30.89-4.80L30.89-4.80Q30.08-3.98 29.43-3.50Q28.78-3.01 28.00-2.56Q27.23-2.11 27.23-2.07Q27.23-2.03 28.37-1.54L28.37-1.54Q29.35-1.14 31.05-0.49L31.05-0.49Q32.68 0 34.59 0.53Q36.50 1.06 36.54 1.18Q36.58 1.30 36.58 1.79L36.58 1.79Q36.58 2.28 36.50 2.28L36.50 2.28Q36.34 2.28 34.95 2.03Q33.57 1.79 32.27 1.54L32.27 1.54Q30.97 1.22 30.32 1.06L30.32 1.06Q29.51 0.81 28.45 0.49L28.45 0.49Q27.15 0.08 25.93-0.41L25.93-0.41L24.71-0.89L23.74-0.49Q22.68-0.16 21.54 0.24L21.54 0.24Q20.40 0.57 19.27 0.89L19.27 0.89Q18.29 1.14 17.15 1.38L17.15 1.38Q16.18 1.63 14.71 1.87L14.71 1.87Q13.41 2.11 13.25 2.11L13.25 2.11Q13.09 2.11 13.09 1.83Q13.09 1.54 13.58 1.38L13.58 1.38Q13.90 1.30 15.36 0.89L15.36 0.89Q16.66 0.49 18.29-0.08L18.29-0.08Q20.00-0.81 21.14-1.30L21.14-1.30Q22.44-1.95 22.40-1.99Q22.35-2.03 21.54-2.60L21.54-2.60Q20.73-3.17 20.08-3.74L20.08-3.74Q19.43-4.31 18.94-4.88L18.94-4.88Q18.53-5.37 18.09-6.02Q17.64-6.67 17.40-7.23L17.40-7.23Q17.23-7.72 17.07-7.72L17.07-7.72Q16.99-7.72 16.87-7.76Q16.75-7.80 16.75-7.80L16.75-7.80Q16.50-7.80 15.93-7.80L15.93-7.80L15.36-7.80L15.36-8.54L15.36-9.35ZM25.12-7.80L25.12-7.80Q20.97-7.80 20.93-7.76Q20.89-7.72 21.05-7.40L21.05-7.40Q21.22-7.07 21.62-6.42L21.62-6.42Q22.03-5.93 22.68-5.12L22.68-5.12Q23.41-4.39 24.14-3.90L24.14-3.90L24.87-3.33L25.69-3.98Q26.66-4.80 27.39-5.53L27.39-5.53Q28.21-6.34 28.70-6.91L28.70-6.91Q29.10-7.56 29.18-7.64L29.18-7.64L28.53-7.80Q27.88-7.80 25.12-7.80ZM8.37-8.86L8.37-8.86L10.08-8.78L10.08-4.88Q10.08-0.89 9.92-0.41L9.92-0.41Q9.75 0.16 9.63 0.53Q9.51 0.89 9.02 1.38L9.02 1.38Q8.62 1.87 8.13 2.07Q7.64 2.28 7.07 2.28L7.07 2.28L6.50 2.28L6.50-3.25Q6.50-8.70 6.58-8.78Q6.67-8.86 8.37-8.86Z" transform="translate(41.62 162.85999999999999) " fill="rgb(92, 50, 0)" stroke="rgb(92, 50, 0)" stroke-width="0.069" data-glyph-w="41.62" data-glyph-h="44.302539062499996" data-glyph-ascender="36.498789062499995" data-glyph-descender="-7.803749999999999"></path><path d="M25.04-32.43L25.04-32.43Q25.12-32.43 26.26-32.11L26.26-32.11Q27.31-31.70 27.39-31.66Q27.48-31.62 26.74-29.59L26.74-29.59Q26.01-27.64 25.44-26.26L25.44-26.26Q24.87-24.87 24.92-24.79Q24.96-24.71 29.51-24.71Q34.06-24.71 34.10-24.87Q34.14-25.04 34.26-25.04Q34.39-25.04 35.44-24.71L35.44-24.71Q36.50-24.39 36.58-24.31L36.58-24.31Q36.66-24.22 36.17-23.49L36.17-23.49Q35.77-22.76 35.12-21.95L35.12-21.95Q34.47-21.05 33.82-20.32L33.82-20.32Q33.08-19.43 32.19-18.45L32.19-18.45Q31.21-17.48 31.13-17.48L31.13-17.48Q31.05-17.48 31.05-17.60Q31.05-17.72 31.54-18.37L31.54-18.37Q32.03-19.02 32.43-19.92L32.43-19.92Q32.92-20.89 33.25-21.95L33.25-21.95Q33.65-23.00 33.65-23.09L33.65-23.09Q33.65-23.09 28.86-23.09L28.86-23.09L24.06-23.09L23.66-22.11Q23.09-20.97 22.35-19.43L22.35-19.43Q21.62-18.05 20.81-16.50L20.81-16.50Q19.92-15.04 19.59-14.47L19.59-14.47Q19.18-13.82 19.14-13.82Q19.10-13.82 18.86-14.23L18.86-14.23L18.53-14.63L18.86-15.36Q19.35-16.75 19.51-17.31L19.51-17.31Q19.92-18.45 19.92-18.45Q19.92-18.45 17.88-18.45L17.88-18.45L15.77-18.45L15.77-9.75Q15.69-0.98 15.53-0.65L15.53-0.65Q15.44-0.49 15.32-0.28Q15.20-0.08 15.12 0L15.12 0Q14.71 0.41 14.39 0.65L14.39 0.65Q13.98 0.89 13.82 0.89Q13.66 0.89 13.58-8.78L13.58-8.78L13.58-18.45L11.38-18.45L9.27-18.45L9.27-10.57Q9.27-2.60 9.10-2.11L9.10-2.11Q9.02-1.63 8.62-0.89L8.62-0.89Q8.29-0.24 7.44 0.61Q6.58 1.46 5.85 1.87L5.85 1.87Q5.04 2.36 4.96 2.36Q4.88 2.36 4.88 1.87Q4.88 1.38 5.28 1.14L5.28 1.14Q5.61 0.89 6.02 0.33L6.02 0.33Q6.34-0.16 6.58-0.81L6.58-0.81Q6.75-1.38 6.91-2.19L6.91-2.19Q7.07-3.01 7.07-15.93L7.07-15.93L7.07-28.86L8.13-28.86L9.27-28.86L9.27-28.53L9.27-28.13L9.75-28.21Q10.24-28.29 11.38-28.61L11.38-28.61Q12.68-29.10 13.90-29.67L13.90-29.67Q15.36-30.24 16.66-30.97L16.66-30.97Q18.05-31.62 18.05-31.62Q18.05-31.62 18.70-30.56L18.70-30.56Q19.35-29.51 19.31-29.39Q19.27-29.26 18.45-29.02L18.45-29.02Q17.80-28.86 16.75-28.61L16.75-28.61Q15.85-28.37 14.63-28.21L14.63-28.21Q13.25-28.04 12.03-27.96L12.03-27.96Q10.65-27.80 10.00-27.80L10.00-27.80L9.35-27.80L9.27-23.98L9.27-20.08L14.63-20.08L20.00-20.08L20.08-19.43L20.08-18.78L20.32-19.51Q20.73-20.65 21.46-22.68L21.46-22.68Q22.52-25.77 22.84-26.66L22.84-26.66Q24.06-29.91 24.14-30.16L24.14-30.16Q24.31-30.65 24.47-31.21Q24.63-31.78 24.75-32.07Q24.87-32.35 24.87-32.35L24.87-32.35Q24.96-32.52 25.04-32.43ZM26.18-22.19Q26.26-22.35 27.60-22.27Q28.94-22.19 28.98-22.15Q29.02-22.11 28.78-20.24L28.78-20.24Q28.61-19.02 28.13-15.77L28.13-15.77Q27.80-13.17 27.80-13.01L27.80-13.01Q27.80-12.68 28.13-11.95L28.13-11.95Q28.37-11.30 29.02-10.16L29.02-10.16Q29.59-9.10 30.65-7.56L30.65-7.56Q31.46-6.26 32.52-4.80L32.52-4.80Q33.73-3.09 34.63-1.79L34.63-1.79Q35.85-0.16 35.85-0.08L35.85-0.08Q35.85 0 35.69 0.12Q35.52 0.24 35.28 0.41Q35.04 0.57 34.79 0.81L34.79 0.81Q33.90 1.54 33.86 1.54Q33.82 1.54 33.08 0.73L33.08 0.73Q32.43-0.08 31.78-1.06L31.78-1.06Q31.13-2.03 30.24-3.82L30.24-3.82Q29.35-5.61 28.86-7.23L28.86-7.23Q28.29-8.94 27.96-10.16L27.96-10.16Q27.72-11.54 27.64-11.62L27.64-11.62Q27.64-11.79 27.60-11.66Q27.56-11.54 27.15-8.70L27.15-8.70Q26.66-5.85 26.42-5.28L26.42-5.28Q26.09-4.71 25.52-4.06L25.52-4.06Q24.87-3.41 24.14-2.85L24.14-2.85Q23.33-2.36 22.60-1.63L22.60-1.63Q21.70-0.89 21.05-0.41L21.05-0.41Q20.24 0.24 19.51 0.65L19.51 0.65Q18.86 1.14 17.64 1.79L17.64 1.79Q16.58 2.36 15.49 2.89Q14.39 3.41 14.35 3.37Q14.31 3.33 14.23 3.09L14.23 3.09Q14.23 3.01 14.39 2.85Q14.55 2.68 15.12 2.36L15.12 2.36Q16.01 1.79 16.75 1.30L16.75 1.30Q17.48 0.81 18.37 0.08L18.37 0.08Q19.43-0.73 20.08-1.38L20.08-1.38Q20.89-2.19 21.62-2.85L21.62-2.85Q22.35-3.50 22.84-4.15Q23.33-4.80 23.66-5.45L23.66-5.45Q23.90-6.02 24.22-7.97L24.22-7.97Q24.79-12.03 25.28-15.61L25.28-15.61Q25.44-16.83 25.65-18.37Q25.85-19.92 25.97-20.73Q26.09-21.54 26.09-21.62L26.09-21.62Q26.18-21.95 26.18-22.19L26.18-22.19Z" transform="translate(83.24 162.85999999999999) " fill="rgb(92, 50, 0)" stroke="rgb(92, 50, 0)" stroke-width="0.069" data-glyph-w="41.62" data-glyph-h="44.302539062499996" data-glyph-ascender="36.498789062499995" data-glyph-descender="-7.803749999999999"></path><path d="M13.01-31.01Q13.09-31.13 15.36-31.13Q17.64-31.13 17.64-31.09Q17.64-31.05 16.26-28.61L16.26-28.61Q14.96-26.34 14.79-25.93L14.79-25.93Q14.39-25.36 14.23-25.12L14.23-25.12Q13.74-24.55 13.49-24.22L13.49-24.22L13.17-23.90L13.17-12.52Q13.17-1.22 13.05-0.61Q12.92 0 12.68 0.45Q12.44 0.89 12.15 1.18Q11.87 1.46 11.38 1.75Q10.89 2.03 10.32 2.03L10.32 2.03L9.67 2.03L9.67-9.35Q9.67-20.81 9.63-20.81Q9.59-20.81 8.70-20.32L8.70-20.32Q7.80-19.75 7.07-19.43L7.07-19.43Q6.18-19.02 5.45-18.70L5.45-18.70Q4.55-18.37 3.50-18.05L3.50-18.05Q2.36-17.72 2.24-17.72Q2.11-17.72 2.11-18.37L2.11-18.37L2.11-18.94L2.52-19.10Q2.76-19.18 3.82-19.75L3.82-19.75Q4.80-20.40 5.77-21.14L5.77-21.14Q6.75-21.87 7.89-22.92L7.89-22.92Q8.86-23.90 9.51-24.63L9.51-24.63Q10.00-25.28 10.57-26.01L10.57-26.01Q11.06-26.91 11.95-28.86L11.95-28.86Q12.92-30.89 13.01-31.01ZM27.23-31.05L27.23-31.05L28.94-31.05L29.02-24.87L29.02-18.62L33.49-18.62L37.88-18.62L37.88-17.80L37.88-17.07L33.49-17.07L29.02-17.07L29.02-14.55L29.02-12.03L34.22-12.03L39.43-12.03L39.43-11.30L39.43-10.49L34.22-10.49L29.02-10.49L29.02-5.85Q28.94-1.22 28.74-0.61Q28.53 0 28.29 0.41L28.29 0.41Q27.96 0.81 27.64 1.06L27.64 1.06Q27.23 1.30 26.83 1.46L26.83 1.46Q26.34 1.63 25.85 1.63L25.85 1.63L25.44 1.54L25.44-4.47L25.36-10.49L20.24-10.49L15.04-10.49L15.04-11.30L15.04-12.03L20.24-12.03L25.36-12.03L25.36-14.55L25.36-17.07L20.97-17.07L16.50-17.07L16.50-17.80L16.50-18.62L20.97-18.62L25.36-18.62L25.36-24.79Q25.36-30.97 25.44-31.05Q25.52-31.13 27.23-31.05ZM17.56-27.64L19.27-27.64L21.05-27.64L21.05-25.93Q21.05-24.14 20.89-23.66L20.89-23.66Q20.81-23.17 20.57-22.76L20.57-22.76Q20.40-22.44 20.08-22.03L20.08-22.03Q19.83-21.79 19.27-21.46L19.27-21.46Q18.70-21.22 18.13-21.22L18.13-21.22L17.56-21.22L17.56-24.39L17.56-27.64ZM34.22-27.64L35.93-27.64L37.72-27.64L37.72-26.09Q37.72-24.47 37.60-23.86Q37.47-23.25 37.23-22.76Q36.99-22.27 36.50-21.87L36.50-21.87Q36.09-21.46 35.60-21.30L35.60-21.30Q35.20-21.22 34.71-21.22L34.71-21.22L34.22-21.22L34.22-24.39L34.22-27.64Z" transform="translate(124.85999999999999 162.85999999999999) " fill="rgb(92, 50, 0)" stroke="rgb(92, 50, 0)" stroke-width="0.069" data-glyph-w="41.62" data-glyph-h="44.302539062499996" data-glyph-ascender="36.498789062499995" data-glyph-descender="-7.803749999999999"></path></g></svg></g></g></svg>